<svg width="130" height="130" viewBox="0 0 130 130" fill="none" xmlns="http://www.w3.org/2000/svg">
<path d="M97.5325 130H32.4675C14.6753 130 0 115.455 0 97.5325V32.4675C0 14.6753 14.5455 0 32.4675 0H97.5325C115.455 0 130 14.5455 130 32.4675V97.5325C130 115.455 115.455 130 97.5325 130ZM32.4675 9.61039C19.8701 9.61039 9.61039 19.8701 9.61039 32.4675V97.5325C9.61039 110.13 19.8701 120.39 32.4675 120.39H97.5325C110.13 120.39 120.39 110.13 120.39 97.5325V32.4675C120.39 19.8701 110.13 9.61039 97.5325 9.61039H32.4675Z" fill="url(#paint0_radial_42_257)"/>
<path d="M90.7639 78.6759C88.2596 83.2793 84.7008 86.8305 80.3512 89.7241C76.0016 92.4862 70.7293 93.933 64.4026 93.933C60.1848 93.933 56.2306 93.1438 52.54 91.697C48.9812 90.2502 45.8178 88.1458 43.1817 85.5153C40.5456 82.8847 38.4367 79.7281 36.9868 76.1769C35.5369 72.6256 34.7461 68.6798 34.7461 64.3395C34.7461 60.2621 35.5369 56.4479 36.855 52.8966C38.3049 49.3454 40.282 46.0573 42.9181 43.4267C45.4224 40.7962 48.5858 38.6918 52.0128 37.1135C55.5715 35.5351 59.5257 34.746 63.7435 34.746C68.225 34.746 72.311 35.5351 75.6061 36.9819C79.1649 38.4287 81.9328 40.5331 84.3054 43.1637C86.6779 45.7942 88.3914 48.9509 89.5776 52.3705C90.7639 55.9218 91.4229 59.8676 91.4229 63.9449V65.2602C91.2911 65.6547 91.2911 66.0493 91.2911 66.5754C91.4229 66.8385 91.4229 67.2331 91.4229 67.6276H49.3766C49.6402 69.8636 50.2993 71.8365 51.3537 73.4148C52.4082 74.9931 53.4626 76.4399 54.9125 77.4921C56.2306 78.5443 57.9441 79.465 59.5257 79.8596C61.2392 80.3857 62.9527 80.6488 64.6662 80.6488C68.0932 80.6488 70.9929 79.8596 73.2336 78.2813C74.5517 77.4921 75.6061 76.3084 76.5288 75.2562C77.8469 73.6779 80.0876 73.2833 81.9329 74.0724L90.7639 78.6759ZM77.1878 57.1055C77.056 56.1848 76.7924 55.0011 76.2652 53.8173C75.7379 52.6336 74.9471 51.4499 73.7608 50.3976C72.7064 49.3454 71.2565 48.4247 69.6748 47.7671C68.0932 47.1095 66.1161 46.7149 63.8753 46.7149C60.712 46.7149 57.9441 47.6356 55.4397 49.477C52.9354 51.3183 51.3537 53.8173 50.2993 57.1055H77.1878Z" fill="white"/>
<defs>
<radialGradient id="paint0_radial_42_257" cx="0" cy="0" r="1" gradientUnits="userSpaceOnUse" gradientTransform="translate(3.692 118.755) rotate(-0.370964) scale(215.289 107.126)">
<stop stop-color="#ADD7FC"/>
<stop offset="1" stop-color="#599FFD"/>
</radialGradient>
</defs>
</svg>
