<svg width="645" height="197" viewBox="0 0 645 197" fill="none" xmlns="http://www.w3.org/2000/svg">
<path d="M0 1.07845V197H645C625.351 176.873 579.919 178.805 546.646 168.858C535.967 165.663 526.011 161.002 514.561 159.516C487.252 155.971 456.738 171.045 432.913 161.172C423.373 157.223 416.947 149.75 406.267 147.574C399.332 146.162 391.904 147.298 384.799 148.253C365.474 150.854 343.421 151.682 328.194 143.094C322.354 139.814 318.039 135.387 312.167 132.139C282.994 116.045 232.769 135.695 204.782 118.614C199.589 115.451 195.798 111.258 190.296 108.338C169.645 97.3407 133.922 107.914 116.585 94.4639C105.381 85.7697 108.448 71.1202 96.5659 62.8719C82.9117 53.4027 57.3447 57.6065 43.3668 48.3603C31.9164 40.7808 33.7041 28.1694 30.5911 17.4477C28.3256 9.59214 13.4231 -3.91088 0 1.07845Z" fill="white"/>
<path d="M294.49 155.461C301.734 156.576 310.318 154.877 316.02 158.147C319.04 159.877 320.396 162.627 323.032 164.633C328.61 168.879 338.15 168.816 346.457 168.433C344.53 172.934 336.609 174.93 329.813 174.591C323.016 174.251 316.59 172.287 309.824 171.735C298.389 170.811 286.692 173.964 275.411 172.361C272.067 171.884 268.862 171.002 265.487 170.684C259.615 170.132 253.62 171.321 247.764 170.726C241.908 170.132 235.82 166.417 237.716 162.542C239.303 159.283 245.498 158.03 247.363 154.846C260.401 132.595 272.576 152.085 294.49 155.461Z" fill="#E3F4FF"/>
<path d="M172.527 141.725C172.496 140.939 172.157 140.079 171.479 139.124C167.534 133.54 149.595 132.171 142.044 131.905C134.385 131.64 126.54 131.396 119.158 129.803C109.527 127.723 97.6754 121.958 92.821 115.727C90.7405 113.063 88.5828 109.591 84.1907 109.464C80.754 109.358 78.0417 111.502 74.6821 112.054C70.2283 112.787 65.944 110.589 62.7693 108.328C60.4268 106.661 58.0381 104.793 54.7555 104.273C51.473 103.763 47.312 105.578 48.0825 107.829C48.3907 108.742 49.4233 109.485 49.7931 110.387C50.8257 112.914 46.6647 114.931 45.3547 117.394C44.9386 118.19 44.8153 119.06 44.1989 119.782C43.5208 120.589 42.3497 121.13 41.2092 121.629C36.4318 123.752 31.6697 125.876 26.8923 127.999C25.7827 128.498 24.6115 129.028 23.9642 129.825C22.4693 131.693 26.4453 134.697 28.418 135.791C33.7964 138.784 40.9472 140.228 47.8206 139.718C51.5809 139.442 55.2025 138.604 58.8857 138.041C66.021 136.948 73.2489 137.51 80.3842 136.682C84.576 136.194 88.7678 135.716 92.9596 135.228C95.7952 134.899 98.9392 134.612 101.312 135.716C104.472 137.181 104.687 140.26 106.352 142.616C108.972 146.321 116.092 148.158 121.593 146.555C123.751 145.928 125.785 144.824 128.128 144.899C129.9 144.952 131.457 145.652 133.028 146.236C139.763 148.731 172.912 150.037 172.527 141.725Z" fill="#E3F4FF"/>
<path d="M201.377 178.709C202.27 178.539 203.087 178.455 203.858 178.433C203.056 178.593 202.224 178.677 201.377 178.709Z" fill="#E3F4FF"/>
<path d="M201.253 178.721L201.237 178.709C201.284 178.709 201.33 178.709 201.377 178.709C201.33 178.709 201.299 178.709 201.253 178.721Z" fill="#E3F4FF"/>
<path d="M192.669 177.255C198.233 178.964 206.508 179.622 212.334 178.062C214.014 177.616 215.693 177.159 217.373 176.703C217.774 176.597 218.221 176.469 218.437 176.215C218.991 175.599 217.99 174.888 217.08 174.537C214.106 173.391 210.731 172.743 208.003 171.331C206.878 170.748 205.892 170.058 204.705 169.527C201.839 168.253 198.418 168.338 195.166 168.094C188.632 167.605 184.301 168.571 178.322 170.026C174.453 170.96 170.262 169.941 166.285 169.283C162.309 168.624 157.455 168.518 154.82 170.684C153.032 172.149 152.739 174.357 150.612 175.61C149.749 176.119 148.501 176.66 148.809 177.414C149.056 177.998 150.088 178.179 150.967 178.242C158.041 178.794 165.315 178.179 171.988 176.469C174.777 175.758 177.536 174.845 180.51 174.728C184.779 174.559 188.755 176.045 192.669 177.255Z" fill="#E3F4FF"/>
</svg>
