<svg width="645" height="197" viewBox="0 0 645 197" fill="none" xmlns="http://www.w3.org/2000/svg">
<path d="M645 1.07845V197H0C19.6491 176.873 65.081 178.805 98.3535 168.858C109.033 165.663 118.989 161.002 130.439 159.516C157.748 155.971 188.262 171.045 212.087 161.172C221.627 157.223 228.053 149.75 238.733 147.574C245.668 146.162 253.096 147.298 260.201 148.253C279.526 150.854 301.579 151.682 316.806 143.094C322.646 139.814 326.961 135.387 332.833 132.139C362.006 116.045 412.231 135.695 440.218 118.614C445.411 115.451 449.202 111.258 454.704 108.338C475.355 97.3407 511.078 107.914 528.415 94.4639C539.619 85.7697 536.552 71.1202 548.434 62.8719C562.088 53.4027 587.655 57.6065 601.633 48.3603C613.084 40.7808 611.296 28.1694 614.409 17.4477C616.674 9.59214 631.577 -3.91088 645 1.07845Z" fill="white"/>
<path d="M350.51 155.461C343.266 156.576 334.682 154.877 328.98 158.147C325.96 159.877 324.604 162.627 321.968 164.633C316.39 168.879 306.85 168.816 298.543 168.433C300.47 172.934 308.391 174.93 315.187 174.591C321.984 174.251 328.41 172.287 335.176 171.735C346.611 170.811 358.308 173.964 369.589 172.361C372.933 171.884 376.138 171.002 379.513 170.684C385.385 170.132 391.38 171.321 397.236 170.726C403.092 170.132 409.18 166.417 407.284 162.542C405.697 159.283 399.502 158.03 397.637 154.846C384.599 132.595 372.424 152.085 350.51 155.461Z" fill="#E3F4FF"/>
<path d="M472.473 141.725C472.504 140.939 472.843 140.079 473.521 139.124C477.466 133.54 495.405 132.171 502.956 131.905C510.615 131.64 518.46 131.396 525.842 129.803C535.474 127.723 547.325 121.958 552.179 115.727C554.26 113.063 556.417 109.591 560.809 109.464C564.246 109.358 566.958 111.502 570.318 112.054C574.772 112.787 579.056 110.589 582.231 108.328C584.573 106.661 586.962 104.793 590.245 104.273C593.527 103.763 597.688 105.578 596.918 107.829C596.609 108.742 595.577 109.485 595.207 110.387C594.174 112.914 598.335 114.931 599.645 117.394C600.061 118.19 600.185 119.06 600.801 119.782C601.479 120.589 602.65 121.13 603.791 121.629C608.568 123.752 613.33 125.876 618.108 127.999C619.217 128.498 620.389 129.028 621.036 129.825C622.531 131.693 618.555 134.697 616.582 135.791C611.204 138.784 604.053 140.228 597.18 139.718C593.419 139.442 589.798 138.604 586.114 138.041C578.979 136.948 571.751 137.51 564.616 136.682C560.424 136.194 556.232 135.716 552.041 135.228C549.205 134.899 546.061 134.612 543.688 135.716C540.528 137.181 540.313 140.26 538.648 142.616C536.028 146.321 528.908 148.158 523.407 146.555C521.249 145.928 519.215 144.824 516.872 144.899C515.1 144.952 513.544 145.652 511.972 146.236C505.237 148.731 472.088 150.037 472.473 141.725Z" fill="#E3F4FF"/>
<path d="M443.623 178.709C442.73 178.539 441.913 178.455 441.142 178.433C441.944 178.593 442.776 178.677 443.623 178.709Z" fill="#E3F4FF"/>
<path d="M443.747 178.721L443.763 178.709C443.716 178.709 443.67 178.709 443.623 178.709C443.67 178.709 443.701 178.709 443.747 178.721Z" fill="#E3F4FF"/>
<path d="M452.331 177.255C446.767 178.964 438.492 179.622 432.666 178.062C430.986 177.616 429.307 177.159 427.627 176.703C427.226 176.597 426.779 176.469 426.563 176.215C426.009 175.599 427.01 174.888 427.92 174.537C430.894 173.391 434.269 172.743 436.997 171.331C438.122 170.748 439.108 170.058 440.295 169.527C443.161 168.253 446.582 168.338 449.834 168.094C456.368 167.605 460.699 168.571 466.678 170.026C470.547 170.96 474.738 169.941 478.715 169.283C482.691 168.624 487.545 168.518 490.18 170.684C491.968 172.149 492.261 174.357 494.388 175.61C495.251 176.119 496.499 176.66 496.191 177.414C495.944 177.998 494.912 178.179 494.033 178.242C486.959 178.794 479.685 178.179 473.012 176.469C470.223 175.758 467.464 174.845 464.49 174.728C460.221 174.559 456.245 176.045 452.331 177.255Z" fill="#E3F4FF"/>
</svg>
